<?xml version="1.0" standalone="no"?>
<!DOCTYPE svg PUBLIC "-//W3C//DTD SVG 20010904//EN"
 "http://www.w3.org/TR/2001/REC-SVG-20010904/DTD/svg10.dtd">
<svg version="1.0" xmlns="http://www.w3.org/2000/svg"
 width="996.000000pt" height="996.000000pt" viewBox="0 0 996.000000 996.000000"
 preserveAspectRatio="xMidYMid meet">
<metadata>
Created by potrace 1.14, written by Peter Selinger 2001-2017
</metadata>
<g transform="translate(0.000000,996.000000) scale(0.100000,-0.100000)"
fill="#000000" stroke="none">
<path d="M6302 9922 c-20 -21 -50 -54 -67 -73 -39 -47 -82 -68 -117 -59 -29 9
-54 -4 -60 -31 -2 -8 17 -34 41 -57 52 -50 51 -71 -9 -131 -36 -36 -171 -111
-199 -111 -6 0 -11 -4 -11 -10 0 -6 -3 -9 -7 -8 -5 2 -28 -4 -53 -13 -25 -9
-67 -21 -95 -28 -75 -18 -128 -47 -148 -81 -22 -37 -62 -40 -133 -10 -45 20
-97 20 -108 1 -9 -13 20 -104 54 -171 38 -77 99 -180 116 -198 7 -6 16 -21 19
-32 3 -11 11 -20 16 -20 5 0 9 -5 9 -10 0 -21 54 -91 86 -110 49 -31 96 -32
154 -3 28 14 50 28 50 32 0 16 50 29 101 27 30 -2 81 -14 114 -28 68 -27 63
-14 70 -178 7 -176 18 -229 75 -357 15 -35 27 -65 40 -103 16 -47 30 -80 46
-112 8 -14 14 -33 14 -41 0 -9 4 -17 9 -19 11 -4 70 -131 86 -188 13 -41 32
-136 40 -200 2 -14 13 -72 25 -130 11 -58 23 -129 26 -158 8 -70 8 -70 27
-127 16 -49 23 -78 33 -140 3 -16 7 -37 10 -45 12 -35 47 -218 47 -245 0 -24
-26 -122 -59 -225 -4 -11 -10 -8 -22 13 -9 15 -20 27 -24 27 -5 0 -8 7 -8 15
0 8 -4 15 -9 15 -5 0 -14 14 -21 30 -7 17 -16 30 -20 30 -3 0 -13 12 -21 28
-8 15 -18 32 -22 37 -27 32 -157 228 -157 236 0 5 -3 9 -7 9 -5 0 -37 45 -73
100 -72 110 -95 131 -73 67 18 -51 10 -87 -18 -87 -11 0 -26 6 -32 13 -19 19
-51 71 -53 85 -5 30 -12 22 -9 -10 2 -18 4 -33 5 -33 1 0 3 -14 4 -30 1 -17 5
-36 9 -42 4 -7 3 -14 -2 -17 -5 -3 -25 12 -45 34 -39 43 -41 44 -26 6 11 -31
-9 -57 -40 -49 -23 6 -25 0 -7 -19 25 -26 37 -66 23 -77 -14 -12 -52 -7 -72
10 -9 7 -14 8 -14 1 0 -6 4 -12 9 -14 5 -1 41 -32 81 -68 40 -36 82 -73 94
-83 12 -9 30 -25 41 -35 11 -10 58 -49 105 -87 47 -38 87 -72 90 -75 3 -3 30
-25 60 -50 30 -25 64 -53 75 -64 34 -31 79 -56 103 -56 26 0 27 -13 6 -71 -9
-24 -17 -49 -18 -56 -1 -7 -5 -16 -9 -19 -4 -4 -7 -14 -7 -23 -1 -39 -17 -44
-46 -14 -30 30 -288 203 -303 203 -5 0 -11 4 -13 8 -1 5 -57 44 -123 87 -66
42 -145 94 -175 115 -85 57 -88 57 -47 10 26 -31 37 -52 35 -70 -5 -39 -40
-37 -100 6 -58 41 -59 44 9 -56 29 -43 13 -51 -41 -21 -46 26 -52 26 -28 1 11
-12 19 -31 18 -43 -1 -17 -7 -22 -29 -22 -31 1 -36 -11 -9 -19 26 -9 62 -44
62 -61 0 -13 -36 -31 -52 -27 -5 1 -8 -2 -8 -7 0 -7 119 -53 165 -64 6 -1 24
-8 40 -14 17 -6 44 -15 60 -19 33 -8 34 -8 55 -17 43 -16 119 -39 145 -44 17
-3 32 -8 35 -11 3 -4 15 -8 28 -10 28 -4 91 -31 77 -33 -31 -4 -628 -22 -675
-20 -32 2 -38 -7 -8 -13 73 -15 98 -29 98 -57 0 -26 -30 -39 -97 -40 l-58 0
73 -27 c39 -15 72 -30 72 -34 0 -4 -22 -10 -50 -14 -48 -6 -71 -24 -31 -24 31
0 51 -44 25 -54 -28 -11 -13 -23 24 -20 21 1 44 -1 51 -6 21 -12 5 -55 -25
-69 -40 -18 -24 -22 26 -6 25 8 99 31 165 51 66 21 125 38 132 40 6 1 91 28
190 59 189 62 242 74 226 52 -6 -6 -25 -48 -43 -92 -18 -44 -42 -100 -53 -125
-12 -25 -21 -47 -22 -50 -1 -3 -11 -25 -22 -50 -12 -25 -22 -48 -23 -52 -4
-24 -183 -367 -200 -385 -12 -14 -29 -21 -43 -19 -41 6 -103 -37 -125 -88 -13
-29 -47 -61 -90 -83 -30 -16 -68 -22 -172 -28 -141 -8 -180 -22 -202 -70 -10
-22 -7 -29 25 -60 59 -57 70 -138 20 -148 -18 -3 -36 5 -68 33 -29 25 -59 41
-86 45 -24 4 -56 15 -73 25 -88 49 -178 55 -236 16 -60 -41 -89 -42 -102 -5
-14 37 58 139 98 139 15 0 3 53 -18 73 -18 17 -68 49 -68 42 0 -2 -11 0 -24 5
-13 5 -43 12 -66 15 -67 10 -158 41 -196 67 -22 15 -40 39 -52 69 -52 138
-167 162 -266 54 -25 -27 -65 -115 -68 -149 -2 -25 -4 -26 -15 -9 -7 10 -17
23 -23 30 -5 7 -10 16 -10 21 0 10 -55 62 -95 90 -33 22 -132 44 -140 31 -3
-4 -18 -4 -33 0 -45 12 -96 4 -169 -28 -112 -49 -192 -185 -142 -242 10 -12
20 -29 21 -38 3 -32 4 -36 11 -48 4 -6 3 -14 -2 -17 -8 -5 -152 130 -176 164
-9 14 -45 80 -79 145 -8 15 -32 46 -53 69 -68 73 -110 130 -128 171 -32 75
-38 85 -57 91 -10 3 -16 10 -13 15 4 5 -1 9 -11 9 -14 0 -16 7 -11 36 6 37 56
128 90 165 10 10 15 19 11 19 -4 0 2 10 13 23 23 25 81 142 87 178 3 13 5 24
6 24 5 0 9 63 5 76 -3 9 -17 21 -31 28 -38 17 -81 -8 -132 -79 -73 -100 -119
-113 -268 -76 l-71 18 -59 -34 c-54 -30 -66 -33 -149 -34 -104 -1 -123 -9
-183 -73 -116 -123 -113 -121 -146 -116 -17 2 -60 15 -95 29 -36 15 -74 26
-85 26 -47 0 -66 -36 -58 -110 4 -30 6 -82 6 -114 0 -54 -3 -62 -32 -86 -18
-15 -32 -34 -32 -44 0 -32 20 -41 86 -38 71 4 77 -1 78 -65 1 -18 5 -33 9 -33
5 0 6 -3 4 -7 -3 -5 -8 -25 -11 -46 -3 -20 -17 -70 -31 -110 -14 -39 -26 -74
-26 -77 -6 -28 -35 -91 -67 -144 -38 -62 -50 -106 -40 -149 11 -52 -2 -71 -70
-106 -63 -32 -78 -46 -84 -75 -2 -13 9 -24 42 -41 40 -21 76 -36 90 -39 3 -1
10 -4 15 -7 6 -4 28 -10 50 -14 46 -10 54 -12 58 -15 1 -1 13 -3 27 -5 28 -3
127 -20 180 -32 19 -4 62 -8 95 -8 48 0 67 5 90 23 41 33 64 75 66 124 4 79
43 128 139 175 30 15 60 28 67 29 6 1 27 -13 47 -31 20 -18 36 -31 36 -29 0 5
48 -36 104 -90 39 -36 185 -116 213 -116 7 0 13 -5 13 -12 0 -6 3 -9 6 -5 7 6
116 -31 124 -43 3 -4 14 -9 25 -13 11 -3 40 -13 65 -22 25 -9 52 -18 60 -20
21 -5 154 -47 158 -50 1 -1 -9 -27 -24 -59 -29 -64 -39 -154 -23 -226 15 -69
26 -79 104 -95 68 -15 171 -59 210 -90 l20 -16 -20 5 c-11 3 -47 8 -80 11 -33
4 -76 8 -95 10 -19 3 -60 7 -90 10 -30 3 -75 8 -100 11 -85 11 -115 13 -250
19 -227 10 -260 11 -260 5 0 -6 -20 -7 -260 -13 -135 -3 -195 0 -222 9 -21 7
-38 11 -38 9 0 -2 -33 10 -72 26 -46 19 -119 37 -195 49 -85 13 -139 27 -175
46 -37 19 -66 26 -98 25 -40 -2 -47 1 -63 28 -17 30 -33 97 -42 181 -10 85
-14 109 -29 157 -35 118 -77 176 -117 166 -50 -14 -57 -30 -57 -146 0 -146
-16 -170 -149 -232 -43 -20 -73 -40 -73 -49 0 -19 -32 -90 -43 -94 -4 -2 -5
-7 -2 -12 6 -10 -71 -87 -95 -95 -38 -12 -61 -85 -64 -205 -3 -129 -1 -126
-119 -166 -117 -39 -135 -88 -59 -157 110 -100 117 -113 113 -189 -1 -28 3
-40 19 -48 18 -10 26 -6 57 25 65 65 85 64 146 -6 53 -61 57 -67 57 -78 0 -6
6 -25 14 -43 8 -18 23 -53 34 -78 23 -54 39 -104 46 -145 16 -96 38 -146 76
-168 37 -22 41 -45 18 -108 -27 -73 -31 -94 -24 -123 6 -23 8 -23 48 -14 24 5
50 11 59 13 9 2 25 8 35 13 11 6 45 22 77 37 59 28 163 86 184 105 7 6 13 8
13 5 0 -3 6 -1 13 5 6 6 36 26 66 43 107 63 124 172 42 266 -12 13 -21 31 -22
40 -4 63 -4 78 2 91 4 8 18 43 30 78 22 56 26 62 54 63 16 1 91 3 165 5 74 1
153 7 175 13 22 7 47 13 55 16 8 2 60 20 115 40 55 20 107 38 115 40 8 2 29 8
45 15 17 6 30 10 30 9 0 -1 20 8 45 21 25 13 45 22 45 20 0 -2 18 6 41 18 55
28 159 61 214 67 95 11 159 21 285 41 50 7 106 14 125 14 20 0 63 7 95 16 33
9 74 18 90 21 17 2 59 10 95 18 36 7 67 11 68 10 2 -2 -2 -21 -9 -42 -7 -21
-14 -40 -14 -43 -3 -10 -26 -66 -37 -90 -30 -61 -119 -158 -160 -173 -13 -4
-16 -17 -14 -54 2 -56 30 -102 76 -130 17 -9 30 -21 30 -25 0 -4 4 -8 9 -8 16
0 80 -44 81 -56 0 -6 -41 -34 -91 -63 l-92 -52 -70 16 c-119 27 -180 2 -206
-85 -8 -26 -20 -41 -40 -49 -24 -10 -55 -53 -52 -71 1 -7 -169 -90 -185 -90
-8 0 -14 -4 -14 -10 0 -5 -5 -10 -11 -10 -5 0 -34 -11 -62 -24 -59 -27 -113
-51 -207 -91 -36 -15 -83 -35 -105 -45 -22 -9 -62 -25 -90 -35 -27 -10 -54
-21 -60 -25 -9 -6 -101 -42 -115 -46 -3 0 -18 -6 -35 -13 -16 -6 -61 -23 -100
-38 -38 -14 -74 -30 -80 -34 -5 -5 -18 -9 -30 -9 -12 0 -26 -5 -33 -12 -7 -7
-12 -9 -12 -5 0 4 -17 -1 -38 -12 -20 -10 -40 -19 -44 -20 -14 -3 -32 -9 -98
-32 -36 -13 -69 -24 -75 -25 -5 -1 -40 -14 -77 -28 -38 -14 -68 -23 -68 -20 0
4 -6 2 -12 -3 -11 -9 -181 -70 -213 -78 -5 -1 -17 -5 -25 -8 -8 -3 -71 -24
-140 -47 -69 -23 -134 -46 -145 -50 -11 -4 -83 -29 -160 -55 -77 -25 -148 -51
-157 -56 -10 -5 -22 -9 -27 -9 -5 0 -22 -5 -38 -12 -15 -6 -33 -12 -40 -14 -7
-1 -61 -20 -120 -42 -59 -22 -166 -62 -238 -88 -127 -47 -175 -77 -175 -109 0
-21 50 -41 125 -50 77 -9 101 -14 185 -40 3 -1 18 -7 33 -13 38 -16 46 -15 90
8 20 11 40 21 44 21 5 1 19 6 33 12 14 6 27 11 30 12 17 6 51 20 95 41 28 12
64 26 80 30 17 4 40 14 53 22 12 8 22 11 22 7 0 -4 7 -2 15 5 8 7 15 9 15 5 0
-4 6 -3 13 2 12 10 208 86 215 84 1 -1 16 6 32 14 16 8 32 15 35 15 7 1 30 9
98 36 l58 23 -6 -27 c-6 -29 0 -39 93 -153 41 -50 43 -56 39 -103 -6 -65 -7
-69 -41 -140 l-28 -58 21 -67 c26 -84 32 -121 20 -121 -6 0 -7 -5 -4 -10 4 -6
1 -27 -6 -48 -26 -75 -12 -113 81 -222 16 -19 32 -43 36 -53 3 -9 9 -17 13
-17 4 0 7 -11 7 -25 0 -14 -4 -25 -10 -25 -5 0 -6 -3 -3 -7 4 -3 1 -13 -5 -21
-40 -48 -80 -133 -74 -158 7 -25 50 -53 82 -53 131 1 195 -19 217 -67 11 -23
22 -32 41 -32 26 0 27 3 41 96 8 49 26 57 103 50 71 -7 247 -98 349 -180 79
-63 110 -78 161 -78 20 0 42 -4 49 -8 12 -7 43 -73 43 -89 0 -5 5 -23 11 -41
11 -33 56 -62 68 -44 3 4 21 29 39 54 17 26 32 50 32 54 0 4 7 15 16 25 8 9
17 23 18 31 2 7 9 27 16 43 8 17 14 35 15 40 1 6 8 26 17 45 8 19 21 53 28 75
7 22 22 60 33 85 54 121 1 231 -124 254 -19 3 -47 19 -62 34 -26 27 -65 104
-72 143 -2 11 -7 28 -10 38 -6 20 64 90 152 154 65 48 124 114 165 186 18 31
39 67 49 81 55 83 93 148 148 254 64 125 107 187 187 272 27 28 79 85 115 125
37 41 83 91 103 111 l37 38 42 -21 c23 -11 58 -39 77 -61 76 -85 139 -47 260
160 23 40 46 74 50 77 10 6 -3 -49 -20 -90 -8 -16 -14 -32 -15 -35 0 -3 -11
-24 -23 -48 -12 -23 -20 -42 -16 -42 4 0 2 -6 -3 -13 -26 -33 -45 -111 -40
-160 4 -44 10 -56 42 -84 21 -18 44 -33 52 -33 7 0 13 -3 13 -7 1 -25 68 -76
154 -117 122 -58 193 -103 244 -154 28 -28 47 -38 70 -38 18 0 32 2 32 6 0 3
8 6 18 7 31 3 109 53 162 105 102 100 145 252 92 323 -18 25 -23 46 -25 130
-2 55 -9 111 -17 125 -17 33 -60 71 -72 64 -6 -4 -5 2 1 14 13 24 43 33 63 18
8 -6 27 -33 42 -61 16 -27 32 -54 36 -60 5 -5 8 -14 8 -18 -1 -5 14 -33 33
-63 45 -71 103 -102 159 -85 48 14 129 69 212 143 112 100 122 109 165 134 70
42 97 33 165 -56 69 -88 113 -172 158 -294 18 -49 44 -110 59 -135 14 -25 42
-80 61 -121 64 -138 99 -186 211 -299 93 -93 110 -115 105 -134 -4 -12 -9 -30
-11 -40 -9 -38 -60 -120 -88 -139 -17 -12 -52 -25 -79 -29 -118 -19 -167 -109
-129 -239 11 -40 60 -217 65 -240 19 -76 98 -230 123 -237 22 -7 78 73 87 124
1 7 10 21 21 33 15 16 27 20 64 16 46 -4 121 18 121 35 0 5 7 9 15 9 8 0 15 5
15 10 0 6 4 10 9 10 6 0 30 14 54 30 25 17 48 30 51 30 3 0 48 18 99 40 106
45 183 58 227 40 17 -7 31 -15 31 -19 2 -5 6 -70 8 -112 1 -10 12 -19 26 -21
20 -4 29 1 42 22 26 45 57 54 176 55 103 0 109 2 127 25 23 30 19 51 -27 141
-18 37 -33 78 -33 91 0 17 20 47 63 91 34 37 68 74 75 82 22 26 40 89 31 110
-17 43 -9 122 19 191 15 38 27 74 27 79 -1 6 -11 37 -24 70 -30 80 -33 93 -26
143 5 37 16 53 75 109 83 80 96 108 70 151 -19 31 -19 31 -87 18 -63 -13 -181
-84 -273 -166 -19 -17 -61 -44 -93 -60 l-58 -29 -41 40 c-22 21 -45 40 -52 40
-19 2 -30 5 -51 13 -40 16 -87 41 -103 56 -33 31 -132 101 -154 109 -13 5 -36
15 -53 22 -16 7 -32 13 -35 14 -13 3 -78 40 -100 57 -38 29 -175 165 -238 237
-32 35 -67 75 -79 89 -13 14 -23 29 -23 33 0 5 -4 9 -9 9 -5 0 -24 15 -43 32
-111 106 -175 162 -259 227 -52 41 -98 79 -104 86 -5 6 -15 14 -21 16 -12 4
-87 91 -117 133 -24 35 -93 80 -146 95 -24 7 -55 24 -70 37 -14 14 -38 33 -53
42 -29 17 -36 36 -17 47 6 4 8 13 5 21 -3 7 -1 16 4 19 11 7 25 89 22 133 -3
49 -39 107 -81 129 -45 25 -113 29 -166 10 -23 -8 -62 -13 -88 -11 -47 4 -132
44 -132 61 0 6 38 43 85 83 47 40 100 88 119 106 l34 33 20 -40 c27 -56 82
-91 138 -88 38 1 137 -6 234 -17 113 -13 153 -17 173 -17 12 1 22 -2 22 -6 0
-10 0 -10 150 -16 69 -2 141 -7 160 -9 19 -3 82 -7 140 -11 58 -3 132 -10 164
-16 59 -10 262 -75 281 -89 6 -4 37 -13 70 -20 33 -6 79 -18 102 -26 23 -7 52
-16 65 -18 13 -3 39 -10 58 -15 74 -23 141 -28 245 -17 96 9 181 10 194 2 13
-8 59 -103 68 -140 12 -48 3 -96 -27 -149 -24 -43 -30 -64 -27 -94 11 -94 27
-108 252 -215 177 -85 234 -106 306 -114 45 -5 49 -4 55 20 4 17 -4 47 -25 93
-17 37 -29 75 -27 83 7 31 19 50 31 50 19 0 53 89 60 158 6 69 53 229 90 309
13 29 40 69 59 89 41 43 63 41 114 -6 18 -16 42 -30 52 -30 25 0 40 28 30 56
-10 26 -4 70 13 94 7 10 38 45 70 79 89 96 78 139 -46 171 -42 10 -85 24 -96
29 -26 14 -39 60 -45 155 -7 103 -32 157 -86 181 -50 23 -83 60 -122 140 -27
54 -38 67 -68 76 -19 6 -39 14 -45 18 -5 3 -12 6 -15 7 -21 3 -69 32 -89 53
-33 37 -40 61 -45 161 -4 81 -17 125 -38 129 -5 0 -10 2 -13 2 -38 10 -59 -2
-81 -48 -10 -21 -19 -40 -19 -43 -1 -3 -7 -25 -14 -50 -15 -52 -22 -100 -25
-185 -1 -33 -5 -66 -10 -73 -4 -6 -3 -12 3 -12 10 0 0 -49 -21 -102 -9 -23
-17 -28 -47 -29 -52 -1 -71 -6 -90 -23 -22 -20 -97 -53 -136 -60 -16 -2 -40
-7 -51 -10 -12 -2 -37 -7 -56 -10 -19 -3 -66 -20 -104 -37 -156 -71 -193 -79
-379 -83 -63 -1 -70 1 -70 19 0 11 -4 26 -8 33 -5 6 -6 12 -2 12 3 0 -4 19
-16 43 -22 42 -72 98 -86 96 -26 -4 -45 6 -89 50 -59 60 -115 93 -135 80 -25
-15 -39 -10 -39 16 0 22 4 25 33 25 18 0 60 -9 92 -21 154 -54 209 -41 237 55
17 61 29 158 31 249 1 20 4 37 7 37 3 0 6 16 7 37 1 26 10 44 32 63 26 24 29
33 26 74 -5 52 -40 120 -84 159 -47 41 -130 79 -185 83 -28 3 -70 6 -94 8 -63
5 -116 -12 -163 -52 l-42 -36 58 109 c94 176 95 179 95 189 0 5 6 17 13 25 7
9 26 44 41 79 15 34 37 84 49 110 12 26 22 49 22 52 5 19 19 40 26 40 5 0 17
-8 27 -17 10 -10 38 -31 62 -48 25 -16 47 -32 50 -35 3 -3 21 -17 40 -30 43
-30 56 -40 81 -62 10 -10 22 -18 25 -18 4 0 26 -16 50 -35 23 -19 45 -35 48
-35 3 0 14 -7 23 -15 10 -7 67 -50 127 -95 79 -58 102 -71 82 -48 -14 18 -33
45 -41 60 -14 26 -14 29 5 48 24 24 39 19 102 -38 l41 -37 -18 35 c-10 19 -28
51 -41 71 -13 20 -21 39 -18 42 3 3 24 -6 47 -19 55 -31 62 -30 36 5 -26 35
-19 51 24 52 18 0 26 3 18 6 -27 11 -71 56 -71 73 0 19 20 27 62 26 46 -2 41
0 -297 130 -11 4 -23 8 -27 9 -5 2 -10 4 -13 5 -3 1 -8 4 -12 5 -5 1 -24 8
-43 16 -19 7 -38 12 -42 11 -5 -1 -8 3 -8 8 0 5 -3 9 -7 8 -8 -3 -93 26 -123
41 -8 4 -41 16 -73 26 -43 14 -57 24 -53 35 9 29 98 295 104 310 8 22 8 22 16
62 5 21 13 41 20 47 10 8 328 97 384 107 14 3 30 8 35 11 5 3 26 7 46 10 20 2
79 19 131 38 52 18 133 44 180 56 47 13 87 25 90 28 3 4 10 7 15 7 6 1 43 12
84 24 103 30 105 31 211 36 168 8 254 13 290 19 19 2 64 7 100 10 90 8 156 18
205 31 11 4 61 26 110 50 103 49 162 74 179 74 18 0 111 -91 134 -132 21 -37
21 -55 8 -163 -7 -54 51 -128 113 -144 20 -5 74 -12 121 -16 47 -4 99 -9 115
-11 108 -16 355 5 348 29 -2 4 -3 16 -3 27 0 11 -23 41 -51 67 -71 67 -75 76
-50 124 24 45 21 119 -6 204 -11 34 -13 47 -19 150 -9 164 -5 196 29 258 22
39 49 47 88 26 68 -36 118 -4 78 50 -25 33 -29 101 -9 126 7 8 10 15 7 15 -3
0 5 24 18 53 30 64 31 100 4 126 -17 16 -32 19 -87 16 -37 -3 -77 -6 -90 -9
-31 -7 -71 9 -79 31 -4 10 -9 20 -13 23 -3 3 -20 35 -37 72 -44 94 -78 127
-144 137 -59 10 -109 29 -109 43 0 4 -5 8 -10 8 -6 0 -31 19 -54 42 -44 41
-44 41 -128 43 -45 1 -94 5 -108 8 -34 9 -98 81 -105 120 -7 35 -51 104 -76
120 -26 16 -69 0 -80 -31 -15 -39 -4 -204 18 -262 3 -8 7 -19 8 -25 2 -5 12
-33 24 -62 11 -29 22 -68 24 -88 2 -19 6 -38 9 -41 4 -3 2 -19 -4 -34 -6 -20
-20 -33 -44 -40 -20 -7 -48 -30 -71 -59 -43 -54 -97 -98 -162 -133 -24 -13
-86 -65 -137 -115 -51 -51 -96 -93 -100 -93 -4 0 -15 -6 -23 -14 -16 -15 -275
-135 -301 -140 -3 -1 -9 -4 -15 -7 -5 -3 -37 -14 -70 -25 -33 -10 -62 -21 -65
-24 -6 -6 -45 -27 -180 -96 -58 -30 -134 -72 -169 -94 -34 -22 -67 -40 -72
-40 -5 0 -9 -3 -9 -7 0 -5 -10 -13 -23 -19 -47 -23 -232 -138 -239 -148 -5 -7
-8 -7 -8 -1 0 7 -3 7 -8 0 -4 -5 -23 -19 -42 -29 -19 -11 -37 -22 -40 -25 -3
-3 -25 -17 -50 -30 -25 -14 -48 -29 -53 -35 -7 -10 -5 7 7 64 3 14 9 41 13 60
10 47 10 50 13 53 6 7 11 78 15 217 3 85 6 178 9 205 2 28 7 93 10 145 3 52 8
122 11 155 3 33 7 101 10 150 3 50 8 117 11 150 3 33 5 65 5 70 -1 21 -1 201
0 215 1 18 -10 144 -16 185 -16 103 -23 361 -12 412 4 18 12 45 18 60 6 15 10
28 9 28 -2 0 11 38 21 60 5 11 11 34 13 50 2 17 5 30 6 30 1 0 3 30 5 67 6 89
22 155 46 195 13 21 20 48 19 75 -1 24 -1 48 -1 54 1 11 62 42 96 49 11 2 20
4 20 5 0 1 11 3 25 5 41 5 103 14 135 21 17 3 35 7 40 8 6 1 16 5 23 9 6 5 12
6 12 3 0 -10 75 25 122 57 52 35 63 70 32 101 -19 19 -20 19 -158 20 l-108 1
-40 45 c-23 25 -47 59 -54 77 -8 17 -18 35 -24 38 -6 4 -8 10 -5 15 8 13 -32
37 -92 56 -29 9 -53 21 -53 25 0 5 -6 9 -14 9 -15 0 -76 58 -76 73 0 12 -27
34 -60 49 -14 6 -78 12 -144 12 -137 1 -129 -4 -179 120 -43 109 -81 124 -145
58z m-1390 -5746 c58 -19 85 -23 108 -16 16 5 30 5 30 1 0 -13 34 -47 55 -55
35 -15 94 -17 116 -6 18 10 19 10 10 -8 -19 -37 -311 -327 -311 -310 0 9 5 20
11 23 10 7 28 46 34 75 6 30 -29 71 -144 169 -79 67 -105 133 -58 150 29 11
56 7 149 -23z m-727 -256 c4 -6 4 -19 0 -28 -13 -30 -12 -76 2 -100 l14 -23
-33 17 c-18 10 -44 18 -58 20 -14 1 -29 2 -33 3 -4 1 3 13 17 28 14 14 33 41
43 60 18 33 36 42 48 23z m1719 -92 c-9 -15 -28 19 -31 57 -3 30 -3 30 17 -8
12 -21 18 -43 14 -49z m-1588 -81 c47 -24 77 -29 209 -31 155 -3 177 -9 194
-47 7 -17 22 -34 33 -38 19 -7 18 -8 -8 -26 -19 -12 -29 -14 -32 -7 -2 7 -10
12 -18 12 -8 0 -14 4 -14 9 0 9 -47 24 -85 26 -11 1 -32 -5 -47 -12 -25 -12
-26 -16 -21 -67 9 -87 -45 -177 -97 -161 -28 9 -50 55 -48 101 3 65 -47 139
-125 189 -15 10 -25 20 -22 23 3 3 -1 15 -9 26 -13 20 -11 21 23 20 20 -1 50
-8 67 -17z m-880 -1287 c32 7 49 1 96 -35 l26 -20 -94 -62 c-51 -35 -98 -63
-104 -63 -5 0 -10 -4 -10 -8 0 -4 -15 -16 -32 -27 -30 -17 -75 -51 -120 -90
-10 -8 -20 -15 -24 -15 -11 0 -145 -112 -217 -183 -42 -40 -90 -85 -107 -98
-18 -13 -44 -34 -58 -47 -14 -12 -38 -33 -54 -45 -16 -12 -39 -30 -50 -39 -12
-10 -29 -18 -38 -18 -10 0 -23 -7 -30 -15 -6 -8 -15 -14 -18 -13 -12 3 -145
-42 -159 -53 -7 -6 -13 -8 -13 -5 0 4 -15 -4 -33 -18 -19 -15 -39 -26 -45 -26
-7 0 -12 -4 -12 -9 0 -5 -8 -12 -17 -15 -10 -4 -31 -14 -47 -23 -28 -15 -80
-31 -116 -36 -16 -2 -81 -45 -91 -60 -11 -16 -85 31 -155 98 -107 103 -214
180 -266 191 -5 1 -11 2 -15 3 -5 1 8 8 27 15 216 81 371 141 485 187 17 7 32
13 35 13 7 2 69 26 105 41 133 57 175 73 175 68 0 -3 6 -1 13 4 6 6 53 27 102
48 50 20 104 43 120 50 17 8 50 22 75 33 25 11 72 33 105 48 33 15 62 28 65
29 14 4 67 29 183 84 70 33 128 60 130 60 1 0 26 13 56 30 38 20 60 27 75 22
11 -5 34 -5 52 -1z"/>
</g>
</svg>
